<?xml version="1.0" encoding="utf-8"?>
<!-- Generator: Adobe Illustrator 16.0.0, SVG Export Plug-In . SVG Version: 6.00 Build 0)  -->
<!DOCTYPE svg PUBLIC "-//W3C//DTD SVG 1.1//EN" "http://www.w3.org/Graphics/SVG/1.1/DTD/svg11.dtd">
<svg version="1.1" xmlns="http://www.w3.org/2000/svg" xmlns:xlink="http://www.w3.org/1999/xlink" x="0px" y="0px"
	 width="389.319px" height="65.861px" viewBox="-32.331 -4 389.319 65.861" enable-background="new -32.331 -4 389.319 65.861"
	 xml:space="preserve">
<g id="レイヤー_2">
</g>
<g id="レイヤー_1">
	<g id="レイヤー_1_1_" display="none">
		<path display="inline" fill="#CCCCCC" d="M56.555,11.721c-1.856,10.646-7.962,18.266-18.313,22.855l-2.639-2.784
			c9.572-3.904,15.333-10.645,17.289-20.219H41.171c-2.248,3.713-4.592,6.691-7.033,8.938l-2.93-1.905
			c5.078-4.59,8.351-9.963,9.815-16.117l3.438,0.785c0,0-1.29,3.807-1.973,5.076h14.69 M52.892,3.077l1.905-1.612l4.688,5.128
			l-2.051,1.612L52.892,3.077z M57.434,1.758L59.192,0l4.249,4.688l-1.758,1.758L57.434,1.758z"/>
		<path display="inline" fill="#CCCCCC" d="M72.232,22.124h-3.37V5.568h3.224c0.975,0.098,1.024,0.49,0.146,1.172L72.232,22.124
			L72.232,22.124z M87.323,18.9c0,7.326-3.421,12.6-10.257,15.824l-2.93-2.491c6.446-2.93,9.718-7.422,9.816-13.479V4.103h3.076
			c0.976,0.196,1.074,0.586,0.294,1.172V18.9z"/>
		<path display="inline" fill="#CCCCCC" d="M94.355,19.779v-3.223h32.672v3.223H94.355z"/>
		<path display="inline" fill="#CCCCCC" d="M159.114,14.798c-5.178,10.746-13.87,16.41-26.078,16.996
			c-0.49,1.27-0.979,1.366-1.466,0.293l-1.172-3.809c12.696-0.293,21.244-5.518,25.641-15.677L159.114,14.798z M130.983,8.791
			l2.491-3.077c2.051,1.271,4.638,3.37,7.765,6.301l-2.783,2.783C135.818,12.357,133.328,10.354,130.983,8.791z"/>
		<path display="inline" fill="#CCCCCC" d="M187.538,12.307h8.644v3.224h-8.497v2.784c0,7.326-3.859,12.552-11.575,15.676
			l-2.344-2.637c7.032-2.345,10.549-6.594,10.549-12.747V15.53h-9.67l0.146,7.472h-3.224l-0.146-7.472h-8.205v-3.224h8.205
			l-0.146-7.766h3.077c0.977,0.1,1.026,0.586,0.146,1.465l0.146,6.301h9.523V3.37h3.224c0.976,0.098,1.025,0.586,0.146,1.465V12.307
			L187.538,12.307z"/>
		<path display="inline" fill="#CCCCCC" d="M200.723,21.098c10.256-4.298,18.021-10.353,23.296-18.167l2.784,2.344
			c0.78,0.586,0.439,1.024-1.026,1.317c-1.855,2.443-4.248,4.935-7.179,7.473V33.99h-3.37V16.849
			c-3.42,2.637-7.424,5.031-12.014,7.179L200.723,21.098z"/>
		<path display="inline" fill="#CCCCCC" d="M260.647,25.64v3.223h-29.155V25.64h12.746V11.135h-10.256V7.912h23.735v3.223h-10.109
			V25.64H260.647z"/>
		<path display="inline" fill="#CCCCCC" d="M293.466,14.798c-5.179,10.746-13.871,16.41-26.079,16.996
			c-0.49,1.27-0.978,1.366-1.465,0.293l-1.173-3.809c12.695-0.293,21.245-5.518,25.64-15.677L293.466,14.798z M265.335,8.791
			l2.491-3.077c2.051,1.271,4.638,3.37,7.765,6.301l-2.783,2.783C270.17,12.357,267.68,10.354,265.335,8.791z"/>
		<path display="inline" fill="#CCCCCC" d="M327.457,29.596l-2.931,2.49c-4.103-4.297-8.059-7.912-11.867-10.842
			c-3.81,4.103-8.156,7.765-13.039,10.988l-2.784-2.491c10.353-6.739,16.996-13.479,19.926-20.219l-15.97,1.025l-0.439-3.517
			L317.347,6.3l1.759-0.438l2.345,2.344c0.683,0.686,0.486,1.124-0.587,1.318c-1.855,3.223-3.81,6.204-5.859,8.938
			C319.202,21.684,323.355,25.397,327.457,29.596z"/>
	</g>
	<g id="レイヤー_3">
		<path fill="#94C465" d="M212.865,28.931l-32.929,32.93l-32.93-32.93L179.936-4L212.865,28.931z"/>
	</g>
	<g>
		<polyline fill="none" stroke="#040000" stroke-width="2" stroke-miterlimit="10" points="19.882,12.531 19.882,19.639 
			13.305,28.454 		"/>
		<polyline fill="none" stroke="#040000" stroke-width="2" stroke-miterlimit="10" points="16.594,42.866 25.764,38.973 
			30.496,32.29 34.934,19.639 19.882,19.639 		"/>
		<line fill="none" stroke="#040000" stroke-width="2" stroke-miterlimit="10" x1="32.442" y1="12.531" x2="37.426" y2="17.354"/>
		<line fill="none" stroke="#040000" stroke-width="2" stroke-miterlimit="10" x1="37.426" y1="10.999" x2="42.41" y2="15.822"/>
	</g>
	<g>
		<line fill="none" stroke="#040000" stroke-width="2" stroke-miterlimit="10" x1="52.329" y1="14.454" x2="52.329" y2="31.009"/>
		<polyline fill="none" stroke="#040000" stroke-width="2" stroke-miterlimit="10" points="67.496,12.988 67.496,35.662 
			58.061,42.876 		"/>
	</g>
	<line fill="none" stroke="#040000" stroke-width="2" stroke-miterlimit="10" x1="81.507" y1="28.932" x2="107.885" y2="28.932"/>
	<g>
		<line fill="none" stroke="#FFFFFF" stroke-width="3" stroke-miterlimit="10" x1="163.453" y1="24.976" x2="196.417" y2="24.976"/>
		<line fill="none" stroke="#FFFFFF" stroke-width="3" stroke-miterlimit="10" x1="173.367" y1="15.672" x2="173.367" y2="34.133"/>
		<polyline fill="none" stroke="#FFFFFF" stroke-width="3" stroke-miterlimit="10" points="186.034,14.5 186.034,37.932 
			174.783,43.364 		"/>
	</g>
	<g>
		<polyline fill="none" stroke="#040000" stroke-width="2" stroke-miterlimit="10" points="241.304,14.208 231.496,24.765 
			217.074,31.916 		"/>
		<line fill="none" stroke="#040000" stroke-width="2" stroke-miterlimit="10" x1="231.496" y1="24.765" x2="231.496" y2="43.657"/>
	</g>
	<g>
		<line fill="none" stroke="#040000" stroke-width="2" stroke-miterlimit="10" x1="254.353" y1="19.932" x2="278.162" y2="19.932"/>
		<line fill="none" stroke="#040000" stroke-width="2" stroke-miterlimit="10" x1="266.257" y1="19.932" x2="266.257" y2="37.932"/>
		<line fill="none" stroke="#040000" stroke-width="2" stroke-miterlimit="10" x1="251.862" y1="37.932" x2="281.018" y2="37.932"/>
	</g>
	<g>
		<polyline fill="none" stroke="#040000" stroke-width="2" stroke-miterlimit="10" points="330.858,17.542 349.551,17.542 
			343.676,28.479 328.49,40.323 		"/>
		<line fill="none" stroke="#040000" stroke-width="2" stroke-miterlimit="10" x1="356.305" y1="40.323" x2="343.676" y2="28.479"/>
	</g>
	<path fill="none" stroke="#040000" stroke-width="2" stroke-miterlimit="10" d="M285.737,28.932"/>
	<path fill="none" stroke="#040000" stroke-width="2" stroke-miterlimit="10" d="M317.176,28.932"/>
	<path fill="none" stroke="#040000" stroke-width="2" stroke-miterlimit="10" d="M287.277,28.932"/>
	<g>
		<line fill="none" stroke="#040000" stroke-width="2" stroke-miterlimit="10" x1="292.277" y1="17.81" x2="300.16" y2="23.686"/>
		<path fill="none" stroke="#040000" stroke-width="2" stroke-miterlimit="10" d="M300.16,23.76"/>
		<polyline fill="none" stroke="#040000" stroke-width="2" stroke-miterlimit="10" points="317.176,23.76 307.564,37.717 
			290.737,40.054 		"/>
	</g>
	<g>
		<line fill="none" stroke="#040000" stroke-width="2" stroke-miterlimit="10" x1="116.933" y1="17.81" x2="124.815" y2="23.687"/>
		<path fill="none" stroke="#040000" stroke-width="2" stroke-miterlimit="10" d="M124.815,23.76"/>
		<polyline fill="none" stroke="#040000" stroke-width="2" stroke-miterlimit="10" points="141.832,23.76 132.22,37.717 
			115.393,40.054 		"/>
	</g>
	<path fill="none" stroke="#94C465" stroke-width="2" stroke-miterlimit="10" d="M179.749,54.816H4.504
		c-15.326,0-19.75-13.424-19.75-28.75v-10.25"/>
	<g id="XMLID_1_">
		<g>
			<path fill="#94C465" d="M-17.702,5.531c3.001,2.531,2.651,6.665,2.651,10.236c-3.333,1.841-9.896,0.92-13.118-1.031
				c-3.102-1.841-3.912-5.293-3.912-8.746c0-1.583,0.488-2.688,0.488-2.688s1.271-0.304,2.844-0.304
				C-25.177,3.119-20.574,3.119-17.702,5.531z"/>
		</g>
		<g>
		</g>
	</g>
	<g id="XMLID_2_">
		<g>
			<path fill="#94C465" d="M-12.875,5.531c-3.001,2.531-2.651,6.665-2.651,10.236c3.332,1.841,9.896,0.92,13.118-1.031
				c3.102-1.841,3.912-5.293,3.912-8.746c0-1.583-0.488-2.688-0.488-2.688s-1.27-0.304-2.844-0.304
				C-5.4,3.119-10.003,3.119-12.875,5.531z"/>
		</g>
		<g>
		</g>
	</g>
</g>
</svg>
