<?xml version="1.0" encoding="utf-8"?>
<!-- Generator: Adobe Illustrator 25.0.0, SVG Export Plug-In . SVG Version: 6.00 Build 0)  -->
<svg version="1.1" id="レイヤー_1" xmlns="http://www.w3.org/2000/svg" xmlns:xlink="http://www.w3.org/1999/xlink" x="0px"
	 y="0px" viewBox="0 0 50 50" style="enable-background:new 0 0 50 50;" xml:space="preserve">
<style type="text/css">
	.st0{fill:#CCCCCC;}
</style>
<path class="st0" d="M29.4,25L49.1,5.3c1.2-1.2,1.2-3.2,0-4.4c-1.2-1.2-3.2-1.2-4.4,0L25,20.6L5.3,0.9c-1.2-1.2-3.2-1.2-4.4,0
	c-1.2,1.2-1.2,3.2,0,4.4L20.6,25L0.9,44.7c-1.2,1.2-1.2,3.2,0,4.4c1.2,1.2,3.2,1.2,4.4,0L25,29.4l19.7,19.7c1.2,1.2,3.2,1.2,4.4,0
	c1.2-1.2,1.2-3.2,0-4.4L29.4,25z"/>
</svg>
