<?xml version="1.0" encoding="utf-8"?>
<!-- Generator: Adobe Illustrator 25.0.0, SVG Export Plug-In . SVG Version: 6.00 Build 0)  -->
<svg version="1.1" xmlns="http://www.w3.org/2000/svg" xmlns:xlink="http://www.w3.org/1999/xlink" x="0px" y="0px"
	 viewBox="0 0 156.9 19" style="enable-background:new 0 0 156.9 19;" xml:space="preserve">
<style type="text/css">
	.st0{display:none;}
	.st1{display:inline;}
	.st2{fill:#FFFFFF;stroke:#FFFFFF;stroke-width:0.5;stroke-miterlimit:10;}
	.st3{fill:#FFFFFF;}
	.st4{fill:#EA9559;}
</style>
<g id="レイヤー_2" class="st0">
	<rect x="-49.7" y="-33.1" class="st1" width="260.6" height="121.3"/>
</g>
<g id="レイヤー_1">
	<g>
		<path class="st2" d="M4.8,5.9C5,5.9,5.1,6,5.3,6.1c0.2,0.2,0.4,0.4,0.4,0.6c0,0.2-0.1,0.4-0.4,0.7c-0.8,0.9-1.8,1.8-2.8,2.7
			c-0.2,0.2-0.4,0.4-0.6,0.5c-0.2,0.1-0.2,0.2-0.2,0.3c0,0.1,0.1,0.2,0.3,0.3c1.5,1.1,2.6,2.1,3.4,3c0.4,0.4,0.5,0.7,0.5,1
			c0,0.3-0.1,0.5-0.3,0.6C5.3,16,5.1,16,5,16c-0.2,0-0.4-0.1-0.5-0.2c-0.1,0-0.2-0.2-0.3-0.4c-0.7-0.9-1.8-2-3.3-3.3
			C0.3,11.7,0,11.3,0,11c0-0.4,0.2-0.8,0.7-1.2c0.7-0.6,1.4-1.2,2.2-2c0.5-0.5,0.9-1,1.2-1.5C4.3,6.1,4.5,5.9,4.8,5.9z"/>
		<path class="st2" d="M6.3,8.5c0.2,0,0.6,0.2,1.1,0.7C7.7,9.5,8,9.8,8,10c0,0.2-0.1,0.3-0.2,0.4c-0.1,0.1-0.2,0.1-0.4,0.1
			c-0.2,0-0.3-0.1-0.5-0.3C6.7,9.9,6.4,9.5,6.1,9.2C6,9.1,5.9,9,5.9,8.8C5.9,8.6,6.1,8.5,6.3,8.5z"/>
		<path class="st2" d="M7.7,7.1c0.2,0,0.6,0.2,1,0.6C9.1,8,9.3,8.3,9.3,8.5c0,0.2-0.1,0.3-0.2,0.4C9,9,8.9,9,8.8,9
			C8.6,9,8.5,8.9,8.4,8.7c-0.2-0.3-0.5-0.6-0.8-1C7.4,7.6,7.3,7.5,7.3,7.4c0-0.1,0-0.2,0.1-0.2S7.6,7.1,7.7,7.1z"/>
		<path class="st2" d="M15.7,7.7C14.5,7.9,13.8,8,13.5,8C13.3,8,13.1,8,13,7.8c-0.1-0.1-0.2-0.3-0.2-0.5c0-0.3,0.1-0.5,0.4-0.7
			c0.1,0,0.3-0.1,0.5-0.1c1.1-0.1,2.1-0.2,2.8-0.4c0.1,0,0.2,0,0.2,0c0.3,0,0.5,0.1,0.7,0.3c0.1,0.2,0.2,0.3,0.2,0.5
			s-0.1,0.4-0.2,0.5c-0.5,0.6-1.6,1.6-3.5,3.3l0,0c0.7-0.5,1.5-0.7,2.4-0.7c0.8,0,1.5,0.2,2,0.6c0.7,0.5,1,1.1,1,1.9
			c0,1.1-0.5,1.9-1.4,2.5c-0.7,0.4-1.6,0.6-2.6,0.6c-0.6,0-1-0.1-1.4-0.4c-0.5-0.3-0.8-0.7-0.8-1.3c0-0.4,0.2-0.7,0.5-1
			c0.4-0.3,0.9-0.4,1.4-0.4c0.9,0,1.7,0.4,2.3,1.2c0.4-0.4,0.6-0.8,0.6-1.3c0-0.4-0.2-0.8-0.6-1c-0.3-0.2-0.7-0.3-1.1-0.3
			c-1.3,0-2.5,0.4-3.7,1.3c-0.2,0.2-0.4,0.2-0.6,0.2s-0.3-0.1-0.5-0.2c-0.1-0.2-0.2-0.3-0.2-0.5c0-0.2,0.1-0.4,0.2-0.5
			c0,0,0.1-0.1,0.3-0.3C13.3,10.2,14.6,9,15.7,7.7L15.7,7.7z M16.4,14.6c-0.4-0.5-0.8-0.7-1.2-0.7c-0.4,0-0.7,0.1-0.7,0.4
			c0,0.1,0.1,0.2,0.2,0.3c0.2,0.1,0.4,0.2,0.7,0.2C15.8,14.7,16.1,14.7,16.4,14.6C16.3,14.6,16.3,14.6,16.4,14.6
			C16.4,14.6,16.4,14.6,16.4,14.6z"/>
		<path class="st2" d="M27.7,8.2c0.1-0.5,0.2-1,0.3-1.4c0.1-0.4,0.3-0.7,0.7-0.7c0.2,0,0.3,0,0.5,0.1c0.2,0.1,0.3,0.3,0.3,0.6
			c0,0.2-0.1,0.6-0.3,1.4c1,0.2,1.7,0.6,2.3,1.2c0.6,0.7,0.9,1.5,0.9,2.6c0,1-0.3,1.8-0.9,2.5c-0.5,0.6-1.1,1-1.8,1.3
			c-0.2,0.1-0.4,0.1-0.5,0.1c-0.2,0-0.4-0.1-0.5-0.3c0-0.1-0.1-0.2-0.1-0.3c0-0.2,0.1-0.4,0.4-0.6c1.3-0.7,1.9-1.7,1.9-2.9
			c0-0.7-0.2-1.3-0.5-1.7c-0.3-0.4-0.9-0.7-1.5-0.8C28.3,10.7,27.7,12,27,13c0.2,0.3,0.4,0.6,0.5,0.8c0.1,0.2,0.2,0.3,0.2,0.5
			c0,0.2-0.1,0.4-0.3,0.6C27.3,14.9,27.1,15,27,15c-0.2,0-0.4-0.1-0.5-0.3c-0.1-0.2-0.2-0.3-0.3-0.5c-0.7,0.8-1.3,1.2-1.9,1.2
			c-0.5,0-0.9-0.3-1.2-0.8c-0.3-0.5-0.4-1.1-0.4-1.7c0-1.1,0.5-2.1,1.6-3.1c-0.2-0.6-0.3-1.1-0.5-1.4c-0.1-0.1-0.1-0.3-0.1-0.4
			c0-0.2,0.1-0.4,0.3-0.5c0.1-0.1,0.2-0.1,0.3-0.1c0.3,0,0.5,0.1,0.6,0.4c0.1,0.2,0.2,0.6,0.3,1.1l0,0.2C26,8.6,26.8,8.3,27.7,8.2z
			 M24.6,11c-0.5,0.6-0.7,1.2-0.7,1.8c0,0.4,0.1,0.7,0.2,0.9c0.1,0.1,0.2,0.2,0.3,0.2c0.2,0,0.4-0.1,0.6-0.4
			c0.1-0.1,0.3-0.3,0.5-0.6C25.1,12.3,24.8,11.6,24.6,11z M27.3,9.5c-0.6,0.1-1.1,0.4-1.6,0.7c0.2,0.6,0.4,1.1,0.7,1.6
			C26.7,11,27,10.3,27.3,9.5z"/>
		<path class="st2" d="M37.4,8.6c0.1,0,0.2,0,0.3,0.1c0.3,0.1,0.5,0.4,0.5,0.7c0,0.3-0.2,0.8-0.5,1.5c-0.5,0.9-1.1,1.7-1.8,2.5
			c-0.5,0.5-0.9,0.8-1.2,0.8c-0.1,0-0.3-0.1-0.4-0.2c-0.1-0.1-0.1-0.2-0.1-0.4c0-0.2,0.1-0.3,0.2-0.5c1-1,1.7-2.3,2.3-3.8
			C36.7,8.8,37,8.6,37.4,8.6z M41.3,8.4c0.2,0,0.4,0.1,0.7,0.4c0.6,0.6,1.2,1.3,1.8,2.2c0.6,1,1,1.6,1,2c0,0.3-0.1,0.5-0.4,0.7
			c-0.2,0.1-0.3,0.1-0.5,0.1c-0.3,0-0.5-0.1-0.7-0.4c0,0-0.1-0.1-0.2-0.3c-0.7-1.5-1.4-2.7-2.2-3.7c-0.1-0.1-0.2-0.3-0.2-0.4
			s0.1-0.3,0.2-0.4C41,8.4,41.1,8.4,41.3,8.4z"/>
		<path class="st2" d="M50.6,8V6.5c0-0.2,0.1-0.4,0.2-0.5c0.1-0.1,0.3-0.2,0.5-0.2c0.3,0,0.5,0.1,0.7,0.4c0.1,0.1,0.1,0.2,0.1,0.4
			v1.5l0.2,0c1.4-0.1,2.1-0.1,2.3-0.2c0.1,0,0.2,0,0.2,0c0.3,0,0.6,0.1,0.8,0.3c0.2,0.2,0.3,0.5,0.3,0.9c0,0.3-0.1,0.7-0.2,1.3
			c-0.3,1.3-0.8,2.4-1.6,3.3c-0.6,0.7-1.3,1.3-2.2,1.9c-0.6,0.4-1,0.5-1.2,0.5c-0.2,0-0.4-0.1-0.5-0.2c-0.1-0.1-0.1-0.2-0.1-0.4
			c0-0.2,0.1-0.3,0.2-0.5c0,0,0.2-0.1,0.4-0.2c0.8-0.5,1.6-1.2,2.2-2c0.4-0.6,0.8-1.2,1-1.9c0.2-0.6,0.3-1.1,0.3-1.5
			c0-0.1-0.1-0.2-0.2-0.2c-0.1,0-0.2,0-0.3,0c-0.8,0.1-2.5,0.2-5.1,0.3l0.2,1.8c0,0,0,0.1,0,0.1c0,0.3-0.1,0.5-0.5,0.6
			c-0.1,0-0.2,0.1-0.3,0.1c-0.2,0-0.4-0.1-0.6-0.3c-0.1-0.1-0.1-0.2-0.1-0.3L47,8.7c0-0.1,0-0.1,0-0.1c0-0.5,0.3-0.7,0.8-0.7
			c0.3,0,0.5,0.1,0.6,0.3l0.1,0l0.6,0C49.9,8.1,50.4,8,50.6,8z"/>
		<path class="st2" d="M63.6,12.3c-1.1,1.1-2.2,2-3.4,2.7c-0.5,0.3-0.8,0.4-1,0.4c-0.2,0-0.4-0.1-0.5-0.3c-0.1-0.1-0.1-0.2-0.1-0.3
			c0-0.2,0.1-0.3,0.2-0.5c0,0,0.2-0.1,0.4-0.3c0.9-0.6,1.9-1.4,3-2.4c1-1,1.8-2,2.3-3c0.1-0.2,0.1-0.3,0.1-0.3c0-0.1,0-0.1-0.1-0.1
			c-0.1,0-0.1,0-0.3,0c-0.2,0-1.1,0.1-2.7,0.2c-0.3,0-0.5,0-0.7,0.1c-0.1,0-0.1,0-0.2,0c-0.3,0-0.5-0.1-0.7-0.4
			c-0.1-0.1-0.1-0.2-0.1-0.3c0-0.3,0.2-0.5,0.5-0.6c0.1,0,0.3-0.1,0.6-0.1c1.1,0,2.5-0.2,4.2-0.3c0.1,0,0.1,0,0.2,0
			c0.3,0,0.6,0.1,0.8,0.3c0.2,0.2,0.3,0.4,0.3,0.7c0,0.2-0.1,0.5-0.3,0.9c-0.4,0.8-1,1.7-1.8,2.7c1.3,0.8,2.3,1.6,3,2.3
			c0.3,0.3,0.5,0.6,0.5,0.9c0,0.2-0.1,0.4-0.2,0.5c-0.2,0.2-0.3,0.2-0.6,0.2c-0.2,0-0.4-0.1-0.6-0.2c0,0-0.1-0.1-0.2-0.2
			C65.6,14.1,64.6,13.2,63.6,12.3z"/>
	</g>
	<g>
		<path class="st2" d="M102,9.5c0-1,0-1.6,0-1.8c0-0.3,0-0.5,0-0.7c0-0.5,0.3-0.7,0.8-0.7c0.4,0,0.7,0.2,0.7,0.5
			c0,0.1,0,0.6,0.1,1.6l0,0.5l0,0.2l0.3-0.1c2.2-0.5,3.4-0.8,3.6-0.9c0.1,0,0.2,0,0.3,0c0.3,0,0.5,0.1,0.7,0.3
			c0.2,0.2,0.3,0.4,0.3,0.6c0,0.4-0.4,1-1.1,1.9c-0.7,0.9-1.2,1.3-1.5,1.3c-0.1,0-0.3-0.1-0.4-0.2c-0.1-0.1-0.1-0.2-0.1-0.3
			c0-0.1,0.1-0.3,0.3-0.6c0.4-0.5,0.7-0.9,0.9-1.3c0-0.1,0.1-0.1,0.1-0.2c0,0,0,0-0.1,0c-0.1,0-1.1,0.3-3,0.8l-0.3,0.1v0.2l0,2.5
			c0,0.3,0.1,0.5,0.2,0.6c0.1,0.1,0.4,0.2,0.7,0.2c1.2,0,2.1-0.1,2.8-0.2c0.1,0,0.2,0,0.2,0c0.3,0,0.5,0.1,0.6,0.4
			c0,0.1,0.1,0.2,0.1,0.4c0,0.4-0.2,0.6-0.6,0.7c-0.4,0.1-1.4,0.1-3.1,0.1c-0.7,0-1.2-0.1-1.6-0.3c-0.3-0.2-0.6-0.4-0.7-0.8
			c-0.1-0.2-0.1-0.5-0.1-0.9c0-0.5,0-1.3,0-2.3l0-0.2c-0.3,0.1-0.6,0.2-1,0.3c-0.6,0.1-0.9,0.2-1,0.2c-0.2,0-0.4-0.1-0.5-0.3
			c-0.1-0.1-0.1-0.3-0.1-0.4c0-0.3,0.2-0.5,0.5-0.6c0,0,0.5-0.1,1.4-0.3l0.6-0.1L102,9.5z"/>
		<path class="st2" d="M112.9,7.3c0.2,0,0.4,0.1,0.8,0.2c0.7,0.3,1.3,0.6,1.8,0.9c0.3,0.2,0.4,0.4,0.4,0.7c0,0.2,0,0.3-0.1,0.5
			c-0.1,0.2-0.3,0.3-0.6,0.3c-0.2,0-0.5-0.1-0.7-0.3c-0.7-0.5-1.2-0.9-1.8-1.2c-0.3-0.2-0.4-0.3-0.4-0.5
			C112.2,7.5,112.4,7.3,112.9,7.3z M120.4,9.2c0.1,0,0.3,0,0.4,0.1c0.2,0.1,0.2,0.3,0.2,0.5c0,0.2-0.1,0.3-0.2,0.5
			c-0.9,1.3-2.1,2.5-3.6,3.5c-1.2,0.8-2.5,1.4-3.8,1.8c-0.1,0-0.3,0.1-0.4,0.1c-0.3,0-0.6-0.2-0.7-0.5c-0.1-0.1-0.1-0.3-0.1-0.4
			c0-0.3,0.1-0.5,0.4-0.6c0.1,0,0.3-0.1,0.8-0.2c1.7-0.5,3.2-1.4,4.7-2.7c0.6-0.5,1.1-1.1,1.6-1.7C120,9.3,120.2,9.2,120.4,9.2z"/>
		<path class="st2" d="M128,10.9v4.6c0,0.2-0.1,0.4-0.2,0.5c-0.1,0.1-0.3,0.2-0.5,0.2c-0.5,0-0.8-0.2-0.8-0.7V6.8
			c0-0.4,0.3-0.7,0.8-0.7c0.3,0,0.5,0.1,0.7,0.3c0.1,0.1,0.1,0.2,0.1,0.3v2.9c1.4,0.4,2.5,0.8,3.3,1.3c0.3,0.2,0.5,0.5,0.5,0.8
			c0,0.2-0.1,0.4-0.2,0.5c-0.1,0.2-0.3,0.2-0.6,0.2c-0.2,0-0.4-0.1-0.7-0.3C129.6,11.8,128.9,11.4,128,10.9z"/>
		<path class="st2" d="M138.7,7.4v6c0,0.2,0,0.3,0.1,0.3c0.1,0,0.5-0.2,1.1-0.5c1.4-0.7,2.5-1.6,3.4-2.6c0.2-0.2,0.4-0.3,0.6-0.3
			c0.1,0,0.3,0,0.4,0.1c0.1,0.1,0.2,0.3,0.2,0.5c0,0.2-0.1,0.3-0.2,0.5c-0.7,1-1.7,1.9-3,2.7c-0.8,0.5-1.6,1-2.4,1.2
			c-0.2,0.1-0.4,0.1-0.5,0.1c-0.3,0-0.6-0.2-0.9-0.5c-0.2-0.2-0.2-0.5-0.2-0.8V7.4c0-0.3,0.1-0.4,0.3-0.6c0.1-0.1,0.3-0.1,0.4-0.1
			c0.2,0,0.4,0.1,0.6,0.2C138.6,7,138.7,7.2,138.7,7.4z"/>
		<path class="st2" d="M155.8,7c0.3,0,0.5,0.1,0.7,0.2c0.3,0.2,0.4,0.4,0.4,0.8c0,0.2-0.1,0.5-0.3,0.8c-0.5,0.9-1.1,1.6-1.9,2.3
			c-0.4,0.4-0.7,0.5-1,0.5c-0.2,0-0.3-0.1-0.4-0.2c-0.1-0.1-0.1-0.2-0.1-0.3c0-0.2,0.1-0.3,0.3-0.5c0.6-0.6,1-1.1,1.4-1.7
			c0.1-0.2,0.1-0.3,0.1-0.3c0-0.1-0.1-0.1-0.2-0.1c-0.1,0-0.2,0-0.4,0c-0.1,0-0.3,0-0.8,0.1c-0.3,0-1.8,0.1-4.3,0.3
			c-0.8,0.1-1.3,0.1-1.4,0.1c-0.5,0-0.7-0.2-0.7-0.7c0-0.4,0.2-0.6,0.6-0.7c0,0,1.4-0.1,4.2-0.3C154.6,7.1,155.8,7,155.8,7z
			 M152,9.4c0.2,0,0.4,0.1,0.5,0.2c0.1,0.1,0.2,0.2,0.2,0.3c0,0.1,0.1,0.3,0.1,0.6c0,1-0.1,1.9-0.2,2.5c-0.3,1.3-1.1,2.3-2.3,3
			c-0.2,0.1-0.4,0.2-0.5,0.2c-0.2,0-0.3-0.1-0.4-0.2c-0.1-0.1-0.1-0.2-0.1-0.3c0-0.1,0.1-0.3,0.2-0.4c0-0.1,0.2-0.2,0.4-0.3
			c0.7-0.6,1.2-1.4,1.4-2.4c0.1-0.5,0.1-1.2,0.1-1.9l0-0.3c0-0.3,0.1-0.5,0.3-0.6C151.8,9.4,151.9,9.4,152,9.4z"/>
	</g>
	<g>
		<path class="st3" d="M83.6,8.2c-3.1,0-5.6-1.8-5.6-4.1S80.4,0,83.6,0c3.1,0,5.6,1.8,5.6,4.1S86.7,8.2,83.6,8.2z M83.6,1.4
			c-2.3,0-4.2,1.2-4.2,2.7s1.9,2.7,4.2,2.7c2.3,0,4.2-1.2,4.2-2.7S85.8,1.4,83.6,1.4z"/>
		<polygon class="st3" points="93,19 74.1,19 75,3.8 92.1,3.8 		"/>
		<g>
			<g>
				<path class="st4" d="M79.3,17.3c-0.3-0.3-0.3-0.7,0-1l9.6-9.6c0.3-0.3,0.7-0.3,1,0s0.3,0.7,0,1l-9.6,9.6
					C80.1,17.5,79.6,17.5,79.3,17.3z"/>
				<ellipse transform="matrix(0.7071 -0.7071 0.7071 0.7071 19.5937 64.6975)" class="st4" cx="87.9" cy="8.7" rx="2.9" ry="2.4"/>
			</g>
			<g>
				<path class="st4" d="M88.6,17.3c-0.3,0.3-0.7,0.3-1,0L78,7.7c-0.3-0.3-0.3-0.7,0-1c0.3-0.3,0.7-0.3,1,0l9.6,9.6
					C88.9,16.5,88.9,17,88.6,17.3z"/>
				<path class="st4" d="M80.7,8c0.6,0.6,0.7,1.4,0.3,1.7C80.7,10,80,10,79.4,9.4l-1,1c1.1,1.1,2.8,1.3,3.7,0.3
					C83,9.8,82.8,8.1,81.7,7L80.7,8z"/>
				<path class="st4" d="M79.4,10.4c-0.3,0.3-0.7,0.3-1,0l-1.5-1.5c-0.3-0.3-0.3-0.7,0-1c0.3-0.3,0.7-0.3,1,0l1.5,1.5
					C79.6,9.6,79.6,10.1,79.4,10.4z"/>
				<path class="st4" d="M81.7,8c-0.3,0.3-0.7,0.3-1,0l-1.5-1.5c-0.3-0.3-0.3-0.7,0-1c0.3-0.3,0.7-0.3,1,0L81.7,7
					C82,7.3,82,7.8,81.7,8z"/>
			</g>
		</g>
	</g>
</g>
</svg>
