<?xml version="1.0" encoding="utf-8"?>
<!-- Generator: Adobe Illustrator 16.0.0, SVG Export Plug-In . SVG Version: 6.00 Build 0)  -->
<!DOCTYPE svg PUBLIC "-//W3C//DTD SVG 1.1//EN" "http://www.w3.org/Graphics/SVG/1.1/DTD/svg11.dtd">
<svg version="1.1" id="レイヤー_1" xmlns="http://www.w3.org/2000/svg" xmlns:xlink="http://www.w3.org/1999/xlink" x="0px"
	 y="0px" width="409.216px" height="174.028px" viewBox="0 0 409.216 174.028" enable-background="new 0 0 409.216 174.028"
	 xml:space="preserve">
<g>
	<path fill="#FFFFFF" d="M135.667,85.028c0-1.38,0.603-2.073,1.813-2.073c1.206,0,1.813,0.692,1.813,2.073v10.622h5.182
		c1.38,0,2.072,0.607,2.072,1.813c0,1.21-0.692,1.813-2.072,1.813h-5.182v26.165l5.7-1.813c1.206-0.344,1.983-0.085,2.332,0.777
		c0.344,1.036-0.089,1.902-1.295,2.591c-4.319,2.072-8.982,3.716-13.989,4.922c-1.902,0.349-2.939-0.259-3.109-1.813
		c0-1.206,0.777-1.983,2.332-2.331l4.404-1.036V99.276h-4.663c-1.385,0-2.073-0.603-2.073-1.813c0-1.206,0.688-1.813,2.073-1.813
		h4.663V85.028z M172.972,81.401c1.38,0,2.073,0.777,2.073,2.332s0.085,4.06,0.259,7.513h12.176c1.38,0,2.073,0.607,2.073,1.813
		c0,1.21-0.692,1.813-2.073,1.813h-11.917c0.344,10.019,1.206,17.616,2.59,22.797c1.898-4.315,3.538-9.496,4.922-15.543
		c0.344-1.38,1.121-1.984,2.332-1.813c1.554,0.348,2.157,1.384,1.813,3.108c-1.729,7.428-4.234,13.989-7.513,19.689
		c1.036,3.627,2.242,6.735,3.626,9.326c0.518,1.036,0.947,0.866,1.295-0.519c0.518-2.242,0.947-5.092,1.295-8.549
		c0.17-1.206,0.688-1.725,1.554-1.555c1.037,0,1.555,0.607,1.555,1.813c0,2.073-0.259,5.44-0.777,10.104
		c-0.866,4.663-2.247,6.995-4.145,6.995c-1.21,0-2.42-1.036-3.627-3.108c-1.554-2.936-2.938-6.388-4.145-10.363
		c-4.493,5.012-9.844,9.067-16.062,12.176c-2.247,1.037-3.627,0.777-4.145-0.776c-0.174-1.211,0.429-2.162,1.813-2.85
		c6.735-3.279,12.346-7.684,16.839-13.213c-1.902-7.941-3.024-17.183-3.368-27.719h-16.839c-0.866,0-1.295,0.433-1.295,1.295v7.513
		h9.326c1.036,0,1.983,0.433,2.85,1.295c0.862,0.866,1.295,1.813,1.295,2.85v9.585c0,7.772-2.073,11.658-6.218,11.658
		c-1.729,0-3.457-0.429-5.181-1.295c-0.866-0.688-1.125-1.555-0.777-2.591c0.344-0.688,1.037-0.947,2.073-0.777
		c1.036,0.349,2.072,0.519,3.109,0.519c2.242,0,3.368-2.332,3.368-6.995v-8.549c0-1.38-0.692-2.072-2.073-2.072h-7.771v8.031
		c0,11.054-4.06,19.344-12.176,24.87c-1.902,1.207-3.283,1.207-4.145,0c-0.348-1.036,0.085-1.987,1.295-2.85
		c7.598-4.663,11.399-12.435,11.399-23.315V95.39c0-1.036,0.429-1.983,1.295-2.85c0.862-0.862,1.813-1.295,2.85-1.295h17.357
		c-0.174-3.453-0.259-5.958-0.259-7.513S171.588,81.401,172.972,81.401z M178.931,82.696c0.688-0.518,1.465-0.518,2.332,0
		c1.554,0.866,3.109,2.072,4.663,3.626c0.862,0.867,0.947,1.813,0.259,2.85c-0.867,0.692-1.729,0.692-2.591,0l-4.404-3.886
		C178.323,84.599,178.238,83.732,178.931,82.696z"/>
	<path fill="#FFFFFF" d="M231.188,83.991c0-1.724,0.777-2.59,2.332-2.59c1.555,0,2.332,0.866,2.332,2.59v3.368h25.647
		c1.38,0,2.072,0.607,2.072,1.813c0,1.21-0.692,1.813-2.072,1.813h-25.647v6.995h19.948c1.037,0,1.984,0.433,2.85,1.295
		c0.862,0.866,1.295,1.813,1.295,2.85v31.605c0,4.663-2.247,6.995-6.735,6.995c-3.801,0-7.513-0.434-11.14-1.296
		c-1.384-0.518-1.902-1.384-1.554-2.59c0.344-0.866,1.121-1.211,2.332-1.036c3.626,0.688,6.735,1.036,9.326,1.036
		c2.76,0,4.145-1.296,4.145-3.887V103.68c0-1.38-0.692-2.073-2.073-2.073h-41.45c-1.384,0-2.073,0.692-2.073,2.073v35.75
		c0,1.381-0.607,2.073-1.813,2.073c-1.21,0-1.813-0.692-1.813-2.073v-37.304c0-1.037,0.429-1.984,1.295-2.85
		c0.862-0.862,1.813-1.295,2.85-1.295h19.948v-6.995h-25.647c-1.384,0-2.072-0.604-2.072-1.813c0-1.207,0.688-1.813,2.072-1.813
		h25.647V83.991z M220.567,104.458c0.862-0.688,1.813-0.519,2.85,0.518c1.724,2.072,3.193,4.493,4.404,7.253h10.881
		c1.724-2.242,3.279-4.574,4.663-6.995c0.688-1.206,1.554-1.639,2.59-1.295c1.207,0.519,1.465,1.555,0.777,3.109
		c-1.21,1.902-2.506,3.627-3.886,5.181h7.513c1.206,0,1.813,0.518,1.813,1.555c0,1.036-0.607,1.554-1.813,1.554h-15.544v6.995
		h15.803c1.207,0,1.813,0.519,1.813,1.555s-0.607,1.554-1.813,1.554h-15.803v10.622c0,1.38-0.607,2.072-1.813,2.072
		c-1.21,0-1.813-0.692-1.813-2.072v-10.622h-15.285c-1.21,0-1.813-0.518-1.813-1.554s0.603-1.555,1.813-1.555h15.285v-6.995h-15.543
		c-1.21,0-1.813-0.518-1.813-1.554c0-1.037,0.603-1.555,1.813-1.555h8.031c-1.036-1.898-2.162-3.712-3.368-5.44
		C219.79,105.927,219.875,105.149,220.567,104.458z"/>
	<path fill="#FFFFFF" d="M303.881,84.769c0-1.724,0.777-2.59,2.332-2.59s2.332,0.866,2.332,2.59v9.844h25.907
		c1.38,0,2.072,0.607,2.072,1.813c0,1.21-0.692,1.813-2.072,1.813h-25.648c5.007,15.544,13.9,27.979,26.683,37.305
		c1.037,0.862,1.296,1.898,0.777,3.109c-1.036,1.38-2.59,1.465-4.662,0.259c-10.02-6.735-18.224-17.616-24.611-32.642
		c-3.109,13.127-11.917,24.093-26.424,32.901c-1.903,1.036-3.109,0.947-3.627-0.259c-0.348-1.036,0-1.902,1.036-2.591
		c16.232-10.881,24.781-23.575,25.647-38.082h-24.87c-1.384,0-2.073-0.603-2.073-1.813c0-1.206,0.688-1.813,2.073-1.813h25.129
		V84.769z"/>
	<path fill="#FFFFFF" d="M396.78,103.421c0.862,0,1.64,0.348,2.332,1.037c0.519,0.518,0.777,1.125,0.777,1.813
		c0,1.21-0.434,2.162-1.296,2.85c-2.246,1.902-5.181,3.368-8.808,4.404c-1.902,0.518-3.801,1.125-5.699,1.813
		c-0.866,0.348-1.296,0.866-1.296,1.554v2.072h24.353c1.38,0,2.072,0.607,2.072,1.813c0,1.211-0.692,1.813-2.072,1.813H383.31
		c0.17,2.591,0.259,5.182,0.259,7.772c0.17,4.145-0.433,6.905-1.813,8.29c-1.384,1.554-3.716,2.331-6.994,2.331
		c-2.073,0-4.234-0.174-6.477-0.518c-2.421-0.349-5.097-1.037-8.031-2.073c-0.692-0.348-1.036-0.866-1.036-1.554
		c0-1.211,0.604-1.813,1.813-1.813c3.108,0.688,5.525,1.206,7.254,1.554c1.898,0.345,3.797,0.519,5.699,0.519
		c1.725,0,3.108-0.434,4.145-1.295c0.688-0.688,1.036-1.983,1.036-3.887c0-4.314-0.089-7.424-0.259-9.326h-27.201
		c-1.385,0-2.072-0.603-2.072-1.813c0-1.206,0.688-1.813,2.072-1.813h26.684v-2.849c0-1.037,0.344-1.898,1.036-2.591
		c0.688-0.688,2.242-1.295,4.663-1.813c4.145-1.38,7.683-2.935,10.621-4.663h-34.196c-1.384,0-2.072-0.603-2.072-1.813
		c0-1.206,0.688-1.813,2.072-1.813H396.78z M374.761,82.178c0.862-0.862,1.898-0.777,3.108,0.259
		c2.242,1.902,4.23,3.975,5.958,6.218c0.519,0.692,0.777,1.469,0.777,2.332c0,1.21-0.518,1.902-1.554,2.072h7.253
		c3.797-3.627,6.647-6.646,8.55-9.067c1.206-1.554,2.416-1.813,3.627-0.777c0.861,0.866,0.861,1.902,0,3.108
		c-0.692,1.21-3.024,3.457-6.995,6.736h8.549c1.036,0,1.983,0.433,2.85,1.295c0.862,0.866,1.296,1.813,1.296,2.85v10.104
		c0,1.384-0.607,2.072-1.813,2.072c-1.211,0-1.813-0.688-1.813-2.072v-9.326c0-0.862-0.434-1.295-1.296-1.295H355.59
		c-0.866,0-1.295,0.433-1.295,1.295v9.326c0,1.384-0.607,2.072-1.813,2.072c-1.211,0-1.813-0.688-1.813-2.072V97.204
		c0-1.036,0.429-1.983,1.295-2.85c0.862-0.862,1.813-1.295,2.85-1.295h9.326c-2.246-2.243-4.493-4.489-6.735-6.736
		c-0.866-0.862-0.951-1.813-0.259-2.85c0.862-0.862,1.813-0.947,2.85-0.259c2.242,1.554,4.229,3.283,5.958,5.181
		c0.862,0.692,1.296,1.554,1.296,2.591c0,1.036-0.434,1.728-1.296,2.072h16.321c-0.866-0.17-1.644-0.862-2.332-2.072
		c-1.384-1.725-2.938-3.627-4.663-5.7C374.242,84.081,374.068,83.044,374.761,82.178z"/>
</g>
<g>
	<path fill="#FFFFFF" d="M141.511,149.668h1.939v15.848c0,2.926-0.74,5.039-2.216,6.339c-1.202,1.057-2.726,1.584-4.572,1.584
		c-1.849,0-3.373-0.527-4.572-1.584c-1.571-1.381-2.355-3.372-2.355-5.974v-2.194h1.939v2.072c0,2.114,0.554,3.657,1.663,4.633
		c0.922,0.813,2.03,1.219,3.325,1.219c1.292,0,2.4-0.405,3.325-1.219c1.015-0.894,1.524-2.641,1.524-5.242V149.668z"/>
	<path fill="#FFFFFF" d="M162.136,151.863c2.124,1.871,3.186,5.08,3.186,9.63v0.122c0,4.553-1.063,7.762-3.186,9.63
		c-1.663,1.463-3.65,2.194-5.957,2.194c-2.31,0-4.295-0.731-5.958-2.194c-2.125-1.868-3.186-5.077-3.186-9.63v-0.122
		c0-4.55,1.061-7.759,3.186-9.63c1.663-1.463,3.647-2.194,5.958-2.194C158.486,149.668,160.474,150.4,162.136,151.863z
		 M151.746,153.326c-1.755,1.545-2.632,4.267-2.632,8.167v0.122c0,3.901,0.876,6.625,2.632,8.168
		c1.292,1.139,2.771,1.706,4.434,1.706c1.662,0,3.139-0.567,4.433-1.706c1.662-1.463,2.494-4.185,2.494-8.168v-0.122
		c0-3.98-0.832-6.704-2.494-8.167c-1.294-1.137-2.771-1.706-4.433-1.706C154.517,151.62,153.038,152.189,151.746,153.326z"/>
	<path fill="#FFFFFF" d="M183.316,169.904v-20.235h1.939v23.771h-2.078l-12.33-21.21v21.21h-1.939v-23.771h2.494L183.316,169.904z"
		/>
	<path fill="#FFFFFF" d="M206.541,173.439h-2.355l-2.494-7.313h-9.42l-2.632,7.313h-2.216l8.451-23.771h2.216L206.541,173.439z
		 M200.999,164.296l-4.018-11.824l-4.018,11.824H200.999z"/>
	<path fill="#FFFFFF" d="M223.824,169.904v-20.235h1.939v23.771h-2.078l-12.33-21.21v21.21h-1.939v-23.771h2.494L223.824,169.904z"
		/>
	<path fill="#FFFFFF" d="M239.423,149.668h1.939v13.896c0,3.252,0.645,5.446,1.939,6.583c1.108,0.976,2.494,1.463,4.156,1.463
		c1.662,0,3.048-0.487,4.156-1.463c1.292-1.137,1.94-3.331,1.94-6.583v-13.896h1.939v14.141c0,3.657-0.786,6.177-2.355,7.558
		c-1.571,1.383-3.463,2.072-5.68,2.072c-2.217,0-4.111-0.689-5.68-2.072c-1.571-1.381-2.355-3.9-2.355-7.558V149.668z"/>
	<path fill="#FFFFFF" d="M273.486,169.904v-20.235h1.939v23.771h-2.078l-12.33-21.21v21.21h-1.939v-23.771h2.494L273.486,169.904z"
		/>
	<path fill="#FFFFFF" d="M281.66,173.439h-1.939v-23.771h1.939V173.439z"/>
	<path fill="#FFFFFF" d="M294.96,170.514l6.649-20.846h2.355l-7.896,23.771h-2.217l-7.896-23.771h2.355L294.96,170.514z"/>
	<path fill="#FFFFFF" d="M323.498,151.498h-13.299v8.533h12.33v1.828h-12.33v9.752h13.715v1.828h-15.655v-23.771h15.239V151.498z"/>
	<path fill="#FFFFFF" d="M345.248,173.439h-2.354l-7.204-10.971h-5.957v10.971h-1.939v-23.771h8.728c2.493,0,4.386,0.57,5.68,1.707
		c1.293,1.139,1.94,2.682,1.94,4.632c0,1.951-0.647,3.495-1.94,4.633c-1.017,0.895-2.493,1.463-4.433,1.706L345.248,173.439z
		 M329.732,151.498v9.143h6.234c2.123,0,3.692-0.446,4.71-1.341c0.922-0.812,1.386-1.909,1.386-3.292
		c0-1.381-0.464-2.478-1.386-3.291c-0.925-0.812-2.31-1.219-4.156-1.219H329.732z"/>
	<path fill="#FFFFFF" d="M359.606,151.498c1.292,1.139,2.03,2.967,2.216,5.485h-2.216c-0.187-2.03-0.74-3.453-1.663-4.267
		c-0.924-0.812-2.125-1.219-3.602-1.219c-1.479,0-2.68,0.407-3.603,1.219c-1.107,0.976-1.662,2.114-1.662,3.413
		c0,0.896,0.322,1.627,0.97,2.194c0.738,0.651,2.308,1.341,4.71,2.072c2.678,0.813,4.524,1.667,5.542,2.56
		c1.015,0.896,1.523,2.072,1.523,3.535c0,2.114-0.692,3.779-2.078,4.998c-1.478,1.301-3.324,1.95-5.541,1.95
		c-2.032,0-3.788-0.649-5.265-1.95c-1.479-1.299-2.354-3.249-2.632-5.851h2.217c0.276,2.113,0.876,3.576,1.801,4.388
		c1.108,0.976,2.4,1.463,3.879,1.463c1.662,0,2.955-0.405,3.879-1.219c1.016-0.894,1.524-2.03,1.524-3.413
		c0-1.056-0.37-1.909-1.108-2.561c-0.925-0.811-2.542-1.542-4.849-2.193c-2.587-0.731-4.343-1.503-5.265-2.316
		c-1.018-0.894-1.524-2.112-1.524-3.657c0-1.786,0.738-3.331,2.217-4.632c1.386-1.219,3.139-1.829,5.265-1.829
		C356.465,149.668,358.221,150.279,359.606,151.498z"/>
	<path fill="#FFFFFF" d="M368.057,173.439h-1.939v-23.771h1.939V173.439z"/>
	<path fill="#FFFFFF" d="M388.543,151.498h-7.481v21.941h-1.939v-21.941h-7.48v-1.829h16.901V151.498z"/>
	<path fill="#FFFFFF" d="M399.854,161.493l6.511-11.824h2.494l-8.035,14.263v9.508h-1.939v-9.508l-8.174-14.263h2.493
		L399.854,161.493z"/>
</g>
<g>
	<g>
		<path fill="#FFFFFF" d="M130.97,9.068c-0.991,3.524,1.114,7.176,4.713,8.157c3.596,0.982,7.333-1.105,8.328-4.638
			c0.994-3.53-1.129-7.144-4.725-8.125C135.687,3.479,131.962,5.542,130.97,9.068z"/>
		<path fill="#FFFFFF" d="M126.637,24.262c-1.021,3.516,1.037,7.192,4.622,8.218c3.584,1.025,7.354-1.032,8.388-4.594
			c1.036-3.563-1.063-7.241-4.659-8.222C131.39,18.683,127.661,20.743,126.637,24.262z"/>
		<path fill="#FFFFFF" d="M115.448,4.879c-0.991,3.519,1.124,7.143,4.721,8.125c3.597,0.981,7.326-1.08,8.318-4.606
			c0.991-3.522-1.119-7.174-4.715-8.157C120.173-0.74,116.437,1.36,115.448,4.879z"/>
		<path fill="#FFFFFF" d="M111.15,19.947c-1.008,3.47,1.063,7.102,4.649,8.128c3.584,1.026,7.339-0.988,8.36-4.504
			c1.023-3.518-1.083-7.168-4.679-8.15C115.882,14.44,112.161,16.474,111.15,19.947z"/>
	</g>
	<g>
		<path fill="#FFFFFF" d="M122.168,39.221c-1.077,3.501,0.914,7.214,4.479,8.303c3.564,1.087,7.376-0.917,8.473-4.482
			c1.097-3.564-0.949-7.285-4.533-8.311C127.002,33.705,123.247,35.719,122.168,39.221z"/>
		<path fill="#FFFFFF" d="M117.364,54.293c-1.149,3.478,0.754,7.233,4.295,8.401c3.538,1.167,7.398-0.766,8.573-4.323
			c1.178-3.559-0.795-7.33-4.358-8.417C122.307,48.865,118.516,50.812,117.364,54.293z"/>
		<path fill="#FFFFFF" d="M106.752,34.672c-1.058,3.438,0.951,7.094,4.518,8.182c3.564,1.088,7.355-0.859,8.434-4.361
			c1.078-3.5-0.981-7.176-4.564-8.202C111.552,29.265,107.81,31.235,106.752,34.672z"/>
		<path fill="#FFFFFF" d="M102.045,49.438c-1.123,3.399,0.805,7.083,4.346,8.251c3.538,1.167,7.373-0.695,8.523-4.173
			c1.151-3.48-0.838-7.192-4.403-8.28C106.943,44.146,103.17,46.036,102.045,49.438z"/>
	</g>
	<g>
		<path fill="#FFFFFF" d="M112.274,69.072c-1.238,3.452,0.557,7.258,4.063,8.522c3.503,1.263,7.424-0.58,8.697-4.128
			c1.273-3.545-0.606-7.372-4.145-8.539C117.35,63.759,113.514,65.622,112.274,69.072z"/>
		<path fill="#FFFFFF" d="M106.688,83.899c-1.349,3.408,0.309,7.275,3.767,8.662c3.455,1.385,7.448-0.345,8.845-3.875
			c1.398-3.531-0.364-7.426-3.867-8.689C111.928,78.731,108.039,80.488,106.688,83.899z"/>
		<path fill="#FFFFFF" d="M97.083,63.844c-1.203,3.353,0.626,7.072,4.132,8.337c3.504,1.263,7.391-0.495,8.629-3.945
			c1.239-3.448-0.665-7.203-4.203-8.37C102.101,58.699,98.288,60.49,97.083,63.844z"/>
		<path fill="#FFFFFF" d="M91.674,78.201c-1.3,3.288,0.403,7.045,3.86,8.431c3.455,1.385,7.403-0.235,8.751-3.645
			c1.35-3.41-0.444-7.215-3.947-8.479C96.834,73.243,92.978,74.911,91.674,78.201z"/>
	</g>
	<g>
		<path fill="#FFFFFF" d="M100.638,98.348c-1.488,3.354-0.011,7.292,3.377,8.833c3.387,1.539,7.473-0.046,9.03-3.556
			c1.556-3.508-0.056-7.484-3.51-8.867C106.077,93.371,102.127,94.993,100.638,98.348z"/>
		<path fill="#FFFFFF" d="M93.818,112.7c-1.667,3.271-0.449,7.293,2.834,9.04c3.28,1.746,7.491,0.361,9.264-3.115
			c1.776-3.476,0.37-7.556-3.014-9.096C99.513,107.986,95.491,109.428,93.818,112.7z"/>
		<path fill="#FFFFFF" d="M85.87,92.067c-1.418,3.2,0.125,6.996,3.514,8.536c3.386,1.539,7.404,0.096,8.892-3.259
			c1.488-3.352-0.169-7.217-3.624-8.602C91.193,87.356,87.291,88.867,85.87,92.067z"/>
		<path fill="#FFFFFF" d="M79.417,105.65c-1.563,3.065-0.236,6.893,3.047,8.64c3.28,1.745,7.383,0.555,9.051-2.716
			c1.671-3.27,0.2-7.206-3.186-8.746C84.939,101.286,80.985,102.583,79.417,105.65z"/>
	</g>
	<g>
		<path fill="#FFFFFF" d="M86.165,126.449c-1.912,3.141-1.071,7.258,2.035,9.291c3.103,2.033,7.486,0.933,9.576-2.495
			c2.09-3.424,0.977-7.64-2.3-9.384C92.189,122.115,88.085,123.307,86.165,126.449z"/>
		<path fill="#FFFFFF" d="M77.095,139.642c-2.263,2.901-2.053,7.101,0.711,9.566c2.755,2.462,7.414,1.832,10.016-1.5
			c2.607-3.323,1.959-7.721-1.136-9.754C83.579,135.916,79.378,136.736,77.095,139.642z"/>
		<path fill="#FFFFFF" d="M72.344,118.361c-1.738,2.854-0.708,6.693,2.397,8.728c3.103,2.031,7.298,1.209,9.212-1.934
			c1.916-3.135,0.696-7.154-2.583-8.898C78.087,114.51,74.088,115.506,72.344,118.361z"/>
		<path fill="#FFFFFF" d="M64.327,130.038c-1.933,2.479-1.338,6.252,1.425,8.72c2.757,2.461,7.029,2.256,9.301-0.652
			c2.271-2.896,1.436-7.01-1.662-9.043C70.287,127.022,66.275,127.559,64.327,130.038z"/>
	</g>
	<g>
		<path fill="#FFFFFF" d="M66.174,151.259c-1.431,1.229-2.311,2.842-2.646,4.564c-0.326,1.716-0.108,3.556,0.927,5.08
			c1.031,1.521,2.745,2.402,4.719,2.478c1.965,0.081,4.159-0.655,5.909-2.159c1.754-1.502,2.708-3.449,2.846-5.29
			c0.142-1.847-0.521-3.588-1.882-4.836C73.28,148.627,69,148.841,66.174,151.259z"/>
		<path fill="#FFFFFF" d="M52.12,159.702c-1.82,0.64-3.316,1.761-4.439,3.185c-1.106,1.42-1.841,3.155-1.634,4.975
			c0.203,1.811,1.417,3.366,3.393,4.229c1.957,0.866,4.66,0.988,7.232,0.082c2.581-0.9,4.445-2.6,5.322-4.396
			c0.887-1.81,0.822-3.712-0.124-5.281c-0.952-1.577-2.559-2.562-4.296-3.021C55.822,159.012,53.943,159.066,52.12,159.702z"/>
		<path fill="#FFFFFF" d="M55.569,139.397c-1.059,0.91-1.534,2.211-1.547,3.705c-0.004,1.484,0.442,3.179,1.475,4.703
			c1.033,1.521,2.52,2.549,4.171,2.854c1.642,0.311,3.432-0.112,4.81-1.296c1.378-1.183,2.052-2.86,2.001-4.513
			c-0.046-1.66-0.81-3.293-2.173-4.541C61.546,137.839,57.648,137.623,55.569,139.397z"/>
		<path fill="#FFFFFF" d="M46.703,144.857c-0.943,0.331-1.537,1.233-1.985,2.534c-0.429,1.298-0.725,2.992-0.521,4.811
			c0.205,1.814,0.979,3.41,2.281,4.394c1.282,0.988,3.082,1.328,4.776,0.73c1.698-0.59,2.881-1.966,3.299-3.529
			c0.431-1.577,0.119-3.329-0.83-4.9c-0.95-1.576-2.31-2.708-3.59-3.403C48.841,144.798,47.645,144.53,46.703,144.857z"/>
	</g>
	<g>
		<path fill="#FFFFFF" d="M35.766,160.832c-1.897-0.393-3.772-0.211-5.463,0.446c-1.675,0.663-3.167,1.819-3.923,3.492
			c-0.754,1.669-0.574,3.573,0.573,5.278c1.129,1.697,3.27,3.17,6.012,3.738c2.738,0.575,5.441,0.083,7.268-1.048
			c1.85-1.128,2.822-2.841,2.756-4.66c-0.064-1.833-1.05-3.441-2.354-4.695C39.311,162.132,37.663,161.229,35.766,160.832z"/>
		<path fill="#FFFFFF" d="M20.871,153.717c-1.489-1.229-3.231-1.969-5.077-2.348c-1.833-0.355-3.799-0.361-5.4,0.593
			c-1.59,0.936-2.436,2.832-2.148,5.157c0.264,2.306,1.691,4.904,3.909,6.725c2.218,1.822,4.683,2.521,6.706,2.331
			c1.018-0.086,1.934-0.403,2.705-0.877c0.805-0.469,1.45-1.116,1.893-1.921c0.867-1.619,0.885-3.486,0.415-5.177
			C23.376,156.496,22.361,154.944,20.871,153.717z"/>
		<path fill="#FFFFFF" d="M39.102,145.411c-0.914-0.188-1.998,0.252-3.157,1.104c-1.144,0.858-2.343,2.148-3.099,3.819
			c-0.755,1.671-0.867,3.441-0.252,4.95c0.598,1.503,1.947,2.717,3.707,3.081c1.756,0.369,3.489-0.219,4.608-1.375
			c1.141-1.156,1.67-2.846,1.606-4.669c-0.066-1.829-0.608-3.462-1.204-4.687C40.693,146.41,40.018,145.602,39.102,145.411z"/>
		<path fill="#FFFFFF" d="M31.246,141.663c-0.639-0.537-1.516-0.381-2.744,0.027c-1.21,0.43-2.812,1.034-4.415,1.979
			c-1.59,0.943-2.798,2.229-3.134,3.77c-0.355,1.52,0.208,3.225,1.577,4.352c1.373,1.127,3.182,1.414,4.771,0.961
			c1.616-0.437,2.972-1.609,3.839-3.228c0.443-0.806,0.755-1.63,0.962-2.423c0.184-0.816,0.232-1.603,0.212-2.324
			C32.25,143.336,31.891,142.195,31.246,141.663z"/>
	</g>
	<path fill="#FFFFFF" d="M13.527,139.304c0.019-1.948-0.404-3.772-1.248-5.396c-0.846-1.604-2.136-3-3.905-3.589
		c-1.764-0.586-3.714-0.188-5.371,1.313c-1.643,1.473-2.966,4.164-3.001,7.557c-0.055,3.388,1.331,6.565,3.147,8.289
		c1.823,1.771,3.917,2.172,5.61,1.43c1.709-0.745,2.805-2.355,3.566-4.07C13.075,143.098,13.501,141.253,13.527,139.304z"/>
	<path fill="#FFFFFF" d="M19.077,123.979c1.034-1.571,1.436-3.354,1.246-5.084c-0.193-1.721-0.982-3.384-2.432-4.539
		c-1.447-1.15-3.302-1.557-5.159-1.155c-1.853,0.396-3.713,1.612-5.018,3.592c-1.308,1.974-1.772,4.315-1.408,6.286
		c0.356,1.985,1.525,3.539,3.241,4.257c1.717,0.719,3.62,0.564,5.306-0.055C16.544,126.651,18.038,125.548,19.077,123.979z"/>
	<path fill="#FFFFFF" d="M29.629,139.441c0-0.27-0.691-0.856-1.73-1.701c-1.05-0.821-2.492-1.823-4.258-2.409
		c-1.767-0.588-3.565-0.586-5.02,0.134c-1.446,0.693-2.501,2.147-2.518,3.861c-0.027,1.715,1.043,3.158,2.494,3.708
		c1.461,0.585,3.22,0.314,4.919-0.43c1.702-0.744,3.136-1.684,4.257-2.21C28.888,139.827,29.629,139.716,29.629,139.441z"/>
	<path fill="#FFFFFF" d="M32.604,132.532c1.409-2.148,0.672-5.909-2.205-8.248c-1.447-1.153-3.203-1.674-4.887-1.496
		c-1.676,0.174-3.282,1.056-4.271,2.559c-0.995,1.501-1.144,3.296-0.547,4.809c0.591,1.526,1.908,2.738,3.625,3.457
		c1.716,0.718,3.473,0.906,4.923,0.746C30.699,134.184,31.876,133.628,32.604,132.532z"/>
</g>
</svg>
