<?xml version="1.0" encoding="utf-8"?>
<!-- Generator: Adobe Illustrator 16.0.0, SVG Export Plug-In . SVG Version: 6.00 Build 0)  -->
<!DOCTYPE svg PUBLIC "-//W3C//DTD SVG 1.1//EN" "http://www.w3.org/Graphics/SVG/1.1/DTD/svg11.dtd">
<svg version="1.1" xmlns="http://www.w3.org/2000/svg" xmlns:xlink="http://www.w3.org/1999/xlink" x="0px" y="0px" width="398px"
	 height="128px" viewBox="0 0 398 128" enable-background="new 0 0 398 128" xml:space="preserve">
<g id="レイヤー_2" display="none">
	<rect x="-14.632" y="-43.044" display="inline" fill="#040000" width="432.278" height="206.227"/>
</g>
<g id="レイヤー_1">
	<g>
		<path fill="#FFFFFF" d="M111.906,24.944l19.054-1.245c0.288-0.036,0.631-0.054,1.028-0.054c3.32,0,4.98,1.209,4.98,3.627
			c0,1.299-0.506,2.869-1.516,4.709c-2.635,4.655-5.359,8.319-8.174,10.989c-0.975,0.975-1.877,1.462-2.707,1.462
			c-0.469,0-0.974-0.181-1.516-0.542c-0.686-0.469-1.028-1.154-1.028-2.057c0-0.577,0.343-1.426,1.028-2.544
			c2.31-3.789,3.465-6.333,3.465-7.632c0-0.83-0.506-1.209-1.516-1.137l-0.379,0.054l-67.936,4.493
			c0.035,1.552,0.054,2.526,0.054,2.923c0,3.248-0.235,5.9-0.704,7.958c-0.614,2.598-1.985,3.897-4.114,3.897
			c-2.815,0-4.222-1.354-4.222-4.061c0-0.649,0.234-1.768,0.704-3.355c1.263-4.15,1.912-8.842,1.949-14.075
			c0-2.165,1.028-3.248,3.085-3.248c1.624,0,2.544,1.19,2.761,3.572l48.286-3.248c3.428-5.521,6.64-11.801,9.635-18.838
			c0.938-2.237,2.363-3.356,4.276-3.356c0.866,0,1.659,0.253,2.382,0.758c1.154,0.758,1.732,1.751,1.732,2.978
			c0,1.083-0.523,2.544-1.57,4.385C118.095,16.374,115.081,20.903,111.906,24.944z M86.626,74.962l-17.43,1.028
			c-0.361,1.913-1.552,2.869-3.573,2.869c-2.238,0-3.519-1.137-3.843-3.41l-2.978-22.844c-0.036-0.252-0.054-0.434-0.054-0.542
			c0-1.046,0.415-1.876,1.245-2.489c0.758-0.505,1.642-0.758,2.652-0.758c1.551,0,2.688,0.632,3.411,1.895l20.57-1.462V38.423
			c0-0.83,0.217-1.534,0.65-2.111c0.83-1.046,1.93-1.57,3.302-1.57c1.588,0,2.761,0.595,3.519,1.786
			c0.325,0.578,0.487,1.209,0.487,1.895v10.23l20.84-1.461c0.36-0.036,0.758-0.055,1.191-0.055c4.366,0,6.55,1.841,6.55,5.521
			c0,0.723-0.108,1.589-0.325,2.599l-2.273,11.205c1.984,0.073,2.978,1.155,2.978,3.248c0,2.021-1.011,3.085-3.031,3.193
			l-25.929,1.57v14.724c3.464-0.433,6.063-0.758,7.795-0.975c7.073-0.901,12.18-1.624,15.32-2.165
			c-1.228-1.516-2.653-3.104-4.276-4.764c-0.975-1.01-1.462-1.967-1.462-2.869c0-0.685,0.271-1.28,0.812-1.786
			c0.613-0.541,1.227-0.812,1.841-0.812c0.938,0,2.165,0.632,3.681,1.895c5.955,4.871,10.646,9.708,14.074,14.507
			c0.938,1.3,1.408,2.508,1.408,3.627c0,0.975-0.379,1.858-1.137,2.652c-0.795,0.794-1.77,1.191-2.924,1.191
			c-1.696,0-3.302-1.21-4.817-3.627c-0.938-1.48-1.895-2.904-2.869-4.276c-0.578,0.108-1.354,0.253-2.327,0.433
			c-12.054,2.418-27.933,4.637-47.637,6.658c-9.816,1.01-15.734,1.516-17.755,1.516c-2.563,0-3.844-1.335-3.844-4.006
			c0-1.84,0.866-2.977,2.599-3.41c0.613-0.144,2.688-0.324,6.225-0.541c6.423-0.36,15.536-1.118,27.336-2.273V74.962z M61.726,6.269
			c1.191,0,3.356,1.732,6.496,5.196c4.331,4.8,6.496,8.12,6.496,9.96c0,1.335-0.542,2.382-1.624,3.14
			c-0.758,0.542-1.588,0.812-2.49,0.812c-1.732,0-3.14-1.101-4.222-3.302c-1.407-2.778-3.537-6.423-6.388-10.935
			c-0.614-0.938-0.92-1.75-0.92-2.436c0-0.649,0.234-1.191,0.704-1.624C60.354,6.54,61.003,6.269,61.726,6.269z M86.626,68.466
			V55.529l-19.487,1.407L68.6,69.495L86.626,68.466z M83.757,3.887c1.371,0,3.861,2.292,7.47,6.875c3.32,4.295,4.98,7.38,4.98,9.256
			c0,1.336-0.56,2.364-1.678,3.086c-0.758,0.506-1.606,0.758-2.544,0.758c-1.914,0-3.375-1.245-4.385-3.735
			c-1.588-3.789-3.555-7.65-5.9-11.584c-0.433-0.722-0.649-1.408-0.649-2.057c0-0.793,0.325-1.443,0.974-1.949
			C82.602,4.104,83.18,3.887,83.757,3.887z M94.583,67.979l18.622-1.083l1.895-10.068c0.071-0.396,0.108-0.775,0.108-1.137
			c0-1.407-0.776-2.111-2.328-2.111c-0.108,0-0.289,0.02-0.541,0.055l-17.755,1.299V67.979z"/>
	</g>
	<g>
		<path fill="#FFFFFF" d="M172.961,59.606c0.42,0.88,0.631,2.18,0.631,3.901c0,5.717-2.237,12.131-6.711,19.242
			c-3.327,5.277-6.443,7.916-9.349,7.916c-2.046,0-3.862-1.043-5.449-3.127c-2.027-2.637-3.04-6.078-3.04-10.324
			c0-4.416,1.701-8.535,5.104-12.359c2.676-3.021,5.994-5.325,9.951-6.912c3.575-1.452,7.284-2.18,11.127-2.18
			c5.391,0,9.866,1.626,13.421,4.876c3.823,3.479,5.735,7.963,5.735,13.45c0,4.971-1.559,9.301-4.674,12.99
			c-2.352,2.793-5.335,4.914-8.948,6.367c-0.612,0.248-1.147,0.373-1.606,0.373c-0.593,0-1.032-0.201-1.319-0.602
			c-0.21-0.287-0.315-0.574-0.315-0.861c0-0.42,0.191-0.822,0.574-1.205c0.191-0.172,0.956-0.639,2.295-1.404
			c2.102-1.166,3.967-2.811,5.592-4.934c2.466-3.191,3.699-6.738,3.699-10.639c0-4.568-1.635-8.277-4.904-11.127
			c-2.715-2.352-5.869-3.528-9.463-3.528l-2.18,0.086h-0.057h-0.058H172.961z M169.061,60.295
			c-5.678,1.568-9.999,4.445-12.962,8.632c-1.893,2.678-2.839,5.41-2.839,8.201c0,3.041,0.65,5.555,1.95,7.543
			c0.822,1.262,1.615,1.893,2.38,1.893c1.396,0,3.116-1.566,5.162-4.703c2.083-3.193,3.757-6.662,5.019-10.41
			c0.975-2.943,1.462-5.592,1.462-7.943C169.233,62.857,169.176,61.787,169.061,60.295z"/>
		<path fill="#FFFFFF" d="M232.898,77.531c-0.401,0.229-0.784,0.344-1.147,0.344c-0.669,0-1.242-0.277-1.721-0.832
			c-0.057-0.076-0.286-0.381-0.688-0.918c-1.874-2.523-4.484-5.17-7.829-7.943c-0.44-0.381-0.679-0.84-0.717-1.377
			c-2.581,2.582-5.124,4.656-7.629,6.225c-0.803,0.496-1.453,0.744-1.95,0.744c-0.478,0-0.86-0.172-1.147-0.516
			c-0.21-0.287-0.315-0.582-0.315-0.889c0-0.402,0.173-0.783,0.517-1.146c0.152-0.172,0.755-0.67,1.807-1.492
			c3.327-2.639,6.52-6.021,9.578-10.152c1.683-2.275,3.06-4.474,4.13-6.596c0.593-1.166,1.348-1.749,2.266-1.749
			c0.401,0,0.793,0.105,1.176,0.315c0.727,0.383,1.09,0.965,1.09,1.75c0,0.516-0.239,1.214-0.717,2.094l14.081-1.492
			c0.325-0.038,0.697-0.057,1.118-0.057c2.523,0,3.786,1.032,3.786,3.097c0,0.86-0.307,2.113-0.918,3.757
			c-4.895,13.25-13.374,23.793-25.438,31.631c-2.715,1.74-5.459,3.289-8.23,4.646c-0.688,0.344-1.272,0.516-1.75,0.516
			c-0.516,0-0.917-0.209-1.204-0.631c-0.229-0.344-0.344-0.668-0.344-0.975c0-0.516,0.267-0.994,0.803-1.434
			c0.21-0.172,1.004-0.641,2.38-1.404C221.456,88.839,227.794,83.667,232.898,77.531z M234.046,76.097
			c3.785-4.934,6.576-9.809,8.374-14.627c0.516-1.375,0.774-2.255,0.774-2.638c0-0.573-0.44-0.86-1.319-0.86
			c-0.172,0-0.373,0.011-0.603,0.029l-14.225,1.434c-1.318,1.913-2.915,3.862-4.789,5.85c0.918,0.096,2.801,1.244,5.649,3.441
			c4.148,3.174,6.224,5.459,6.224,6.854C234.132,75.714,234.104,75.886,234.046,76.097z"/>
		<path fill="#FFFFFF" d="M278.64,60.926c1.205,0,2.447,0.441,3.729,1.32c0.497,0.363,1.558,1.291,3.183,2.781
			c5.641,5.258,11.663,10.344,18.067,15.258c2.237,1.721,3.93,2.973,5.076,3.756c1.147,0.785,1.721,1.645,1.721,2.582
			c0,0.535-0.2,1.061-0.603,1.576c-0.42,0.535-0.975,0.803-1.663,0.803c-0.631,0-1.549-0.459-2.753-1.377
			c-3.785-2.904-7.523-5.965-11.213-9.176c-6.214-5.41-10.688-9.465-13.422-12.16c-0.765-0.746-1.443-1.119-2.036-1.119
			c-0.669,0-1.549,0.68-2.638,2.037c-3.06,3.824-6.062,7.227-9.006,10.209c-0.822,0.822-1.596,1.234-2.322,1.234
			c-0.612,0-1.157-0.268-1.635-0.805c-0.383-0.4-0.573-0.85-0.573-1.348c0-0.648,0.602-1.537,1.807-2.666
			c3.25-3.041,6.433-6.434,9.55-10.182C275.399,61.833,276.977,60.926,278.64,60.926z M294.154,56.48
			c0.459,0,0.984,0.201,1.578,0.603c2.37,1.645,4.167,3.441,5.391,5.391c0.345,0.535,0.517,1.023,0.517,1.463
			c0,0.516-0.201,0.947-0.603,1.291c-0.344,0.287-0.755,0.43-1.232,0.43c-0.536,0-1.062-0.41-1.578-1.232
			c-1.262-1.951-2.705-3.757-4.33-5.42c-0.555-0.555-0.832-1.033-0.832-1.435C293.064,56.845,293.428,56.48,294.154,56.48z
			 M300.378,53.498c0.937,0,2.495,0.957,4.675,2.868c1.815,1.625,2.724,2.935,2.724,3.929c0,0.612-0.21,1.08-0.631,1.406
			c-0.363,0.268-0.736,0.4-1.118,0.4c-0.535,0-1.061-0.371-1.577-1.118c-1.357-1.95-2.801-3.643-4.33-5.076
			c-0.555-0.535-0.832-0.984-0.832-1.348C299.288,53.853,299.651,53.498,300.378,53.498z"/>
	</g>
</g>
<g id="レイヤー_3">
	<g>
		<g>
			<path fill="#FFFFFF" d="M14.744,122.73c12.358-4.198,25.444-5.355,38.419-5.703c13.899-0.373,27.799,0.304,41.691,0.623
				c15.17,0.348,30.257,0.521,45.403,1.633c15.947,1.172,31.859,2.783,47.812,3.891c31.239,2.167,62.884,1.958,94.143,0.204
				c29.89-1.677,59.632-5.655,88.598-13.347c6.705-1.78,13.35-3.786,19.935-5.968c2.165-0.717,2.413-2.311,0.298-3.381
				c-2.395-1.212-5.883-1.597-8.452-0.746c-28.146,9.322-57.269,14.708-86.766,17.371c-14.811,1.337-29.688,1.925-44.554,2.192
				c-15.492,0.278-31.058,0.388-46.543-0.21c-32.29-1.246-64.353-5.8-96.685-6.354c-13.854-0.238-27.707-0.601-41.562-0.834
				c-14.066-0.236-28.24,0.021-42.161,2.221c-6.005,0.949-11.972,2.325-17.73,4.281c-2.15,0.73-2.426,2.304-0.298,3.381
				C8.673,123.189,12.19,123.597,14.744,122.73L14.744,122.73z"/>
		</g>
	</g>
	<circle fill="#E2DF78" cx="284.671" cy="18.51" r="14.51"/>
	<circle fill="#E2DF78" cx="327.425" cy="36.672" r="9.496"/>
</g>
</svg>
