<?xml version="1.0" encoding="utf-8"?>
<!-- Generator: Adobe Illustrator 22.1.0, SVG Export Plug-In . SVG Version: 6.00 Build 0)  -->
<svg version="1.1" id="レイヤー_1" xmlns="http://www.w3.org/2000/svg" xmlns:xlink="http://www.w3.org/1999/xlink" x="0px"
	 y="0px" viewBox="0 0 70 70" style="enable-background:new 0 0 70 70;" xml:space="preserve">
<style type="text/css">
	.st0{fill:#87645C;}
</style>
<path class="st0" d="M53.9,1.4l-8.9,21.3c-0.2,0.4-0.2,0.8-0.2,1.2l0.4,15.6c0.2,1.7,2.2,2.6,3.6,1.5l11.3-10.7
	c0.3-0.2,0.6-0.6,0.7-0.9L69.8,8c0.5-1.2-0.1-2.5-1.2-3L56.9,0.2C55.8-0.3,54.4,0.2,53.9,1.4z"/>
<path class="st0" d="M60.6,70H3c-1.7,0-3-1.3-3-3V7.9c0-1.7,1.3-3,3-3h57.6c1.7,0,3,1.3,3,3V67C63.6,68.7,62.3,70,60.6,70z M6,64
	h51.6V10.9H6V64z"/>
<g>
	<path class="st0" d="M48.5,23.9H15.1c-1.7,0-3-1.3-3-3s1.3-3,3-3h33.4c1.7,0,3,1.3,3,3S50.2,23.9,48.5,23.9z"/>
	<path class="st0" d="M48.5,40.4H15.1c-1.7,0-3-1.3-3-3s1.3-3,3-3h33.4c1.7,0,3,1.3,3,3S50.2,40.4,48.5,40.4z"/>
	<path class="st0" d="M48.5,56.9H15.1c-1.7,0-3-1.3-3-3s1.3-3,3-3h33.4c1.7,0,3,1.3,3,3S50.2,56.9,48.5,56.9z"/>
</g>
</svg>
