<?xml version="1.0" encoding="utf-8"?>
<!-- Generator: Adobe Illustrator 22.1.0, SVG Export Plug-In . SVG Version: 6.00 Build 0)  -->
<svg version="1.1" id="レイヤー_1" xmlns="http://www.w3.org/2000/svg" xmlns:xlink="http://www.w3.org/1999/xlink" x="0px"
	 y="0px" viewBox="0 0 70 70" style="enable-background:new 0 0 70 70;" xml:space="preserve">
<style type="text/css">
	.st0{fill:#87645C;}
</style>
<path class="st0" d="M32.3,1L1.8,28.2c-2.7,2.4-1,7,2.7,7h61c3.7,0,5.4-4.5,2.7-7L37.7,1C36.1-0.3,33.9-0.3,32.3,1z"/>
<path class="st0" d="M56,29H14c-2.2,0-4,1.8-4,4v33c0,2.2,1.8,4,4,4h42c2.2,0,4-1.8,4-4V33C60,30.8,58.2,29,56,29z M33.7,56h-9.3
	c-1.1,0-2-0.9-2-2v-6.7h11.3V56z M33.7,44.7H22.4V38c0-1.1,0.9-2,2-2h9.3V44.7z M47.6,54c0,1.1-0.9,2-2,2h-9.3v-8.7h11.3V54z
	 M47.6,44.7H36.3V36h9.3c1.1,0,2,0.9,2,2V44.7z"/>
</svg>
