<?xml version="1.0" encoding="utf-8"?>
<!-- Generator: Adobe Illustrator 22.1.0, SVG Export Plug-In . SVG Version: 6.00 Build 0)  -->
<svg version="1.1" id="レイヤー_1" xmlns="http://www.w3.org/2000/svg" xmlns:xlink="http://www.w3.org/1999/xlink" x="0px"
	 y="0px" viewBox="0 0 70 70" style="enable-background:new 0 0 70 70;" xml:space="preserve">
<style type="text/css">
	.st0{fill:#87645C;}
</style>
<path class="st0" d="M65.3,9H4.5C2,9,0,7,0,4.5S2,0,4.5,0h60.8c2.5,0,4.5,2,4.5,4.5S67.8,9,65.3,9z"/>
<path class="st0" d="M65.4,70H4.6c-2.5,0-4.5-2-4.5-4.5s2-4.5,4.5-4.5h60.8c2.5,0,4.5,2,4.5,4.5S67.9,70,65.4,70z"/>
<path class="st0" d="M65.4,39.5H4.6c-2.5,0-4.5-2-4.5-4.5s2-4.5,4.5-4.5h60.8c2.5,0,4.5,2,4.5,4.5S67.9,39.5,65.4,39.5z"/>
</svg>
