<?xml version="1.0" encoding="utf-8"?>
<!-- Generator: Adobe Illustrator 22.1.0, SVG Export Plug-In . SVG Version: 6.00 Build 0)  -->
<svg version="1.1" id="レイヤー_1" xmlns="http://www.w3.org/2000/svg" xmlns:xlink="http://www.w3.org/1999/xlink" x="0px"
	 y="0px" viewBox="0 0 70 70" style="enable-background:new 0 0 70 70;" xml:space="preserve">
<style type="text/css">
	.st0{fill:#87645C;}
</style>
<path class="st0" d="M52,70L52,70c-4.3,0-7.8-3.5-7.8-7.8V7.8C44.2,3.5,47.7,0,52,0h0c4.3,0,7.8,3.5,7.8,7.8v54.4
	C59.8,66.5,56.3,70,52,70z"/>
<path class="st0" d="M18,70L18,70c-4.3,0-7.8-3.5-7.8-7.8V7.8C10.2,3.5,13.7,0,18,0h0c4.3,0,7.8,3.5,7.8,7.8v54.4
	C25.8,66.5,22.3,70,18,70z"/>
</svg>
